<?xml version="1.0" standalone="no"?>
<svg viewBox="0 0 200 200" xmlns="http://www.w3.org/2000/svg">
  <path fill="#000000" d="M35.4,-56.3C49.3,-53.3,66.3,-50.7,70.5,-41.4C74.8,-32,66.4,-16,66.4,0C66.4,16.1,74.9,32.1,69.8,39.9C64.7,47.8,45.9,47.4,32,48.6C18.1,49.8,9,52.7,-2.8,57.5C-14.6,62.3,-29.2,69.1,-40.7,66.5C-52.2,63.9,-60.6,51.8,-67.6,39.2C-74.5,26.5,-80.1,13.3,-80.7,-0.4C-81.4,-14,-77.1,-28,-67,-35.2C-56.9,-42.5,-40.9,-42.9,-28.8,-46.9C-16.7,-51,-8.3,-58.6,1.2,-60.7C10.8,-62.8,21.5,-59.4,35.4,-56.3Z" transform="translate(100 100)" />
</svg>
